/* XPM */
static char * coin_xpm[] = {
"32 32 5 1",
" 	c #838BA9",
".	c #1B1B1B",
"+	c #FFF21B",
"@	c #FBC41B",
"#	c #F2741B",
"                                ",
"                                ",
"                                ",
"                                ",
"                                ",
"                                ",
"            ........            ",
"            ........            ",
"          ..++++++++..          ",
"          ..++++++++..          ",
"        ..++++@@@@@@##..        ",
"        ..++++@@@@@@##..        ",
"        ..++@@@@++@@##..        ",
"        ..++@@@@++@@##..        ",
"        ..++@@++##@@##..        ",
"        ..++@@++##@@##..        ",
"        ..++@@++##@@##..        ",
"        ..++@@++##@@##..        ",
"        ..++@@##@@@@##..        ",
"        ..++@@##@@@@##..        ",
"        ..++@@@@@@####..        ",
"        ..++@@@@@@####..        ",
"          ..########..          ",
"          ..########..          ",
"            ........            ",
"            ........            ",
"                                ",
"                                ",
"                                ",
"                                ",
"                                ",
"                                "};
